<svg xmlns:dc="http://purl.org/dc/elements/1.1/" xmlns:cc="http://creativecommons.org/ns#" xmlns:rdf="http://www.w3.org/1999/02/22-rdf-syntax-ns#" xmlns:svg="http://www.w3.org/2000/svg" xmlns="http://www.w3.org/2000/svg" xmlns:xlink="http://www.w3.org/1999/xlink" id="svg48982" viewBox="0 0 1024 768" version="1.1">
        <g id="logo-group">
        <g id="logo-center" transform="translate(0 0)"><g id="title" style="font-style:normal;font-weight:normal;font-size:72px;line-height:1;font-family:'Brandmark Sans 25';font-variant-ligatures:normal;text-align:center;text-anchor:middle" transform="translate(0 0)">
                <path id="path48991" style="font-style:normal;font-weight:normal;font-size:72px;line-height:1;font-family:'Brandmark Sans 25';font-variant-ligatures:normal;text-align:center;text-anchor:middle" d="m 383.76294,-50.4 h -7.128 c -0.792,0 -1.512,0.72 -1.512,1.512 v 29.52 c 0,5.112 -4.104,9.216 -9.144,9.216 h -26.064 c -2.304,0 -4.32,-1.656 -4.824,-3.888 -0.144,-0.648 -0.792,-1.08 -1.512,-1.08 h -7.2 c -0.864,0 -1.584,0.792 -1.512,1.656 0.864,7.56 7.272,13.464 15.048,13.464 h 26.064 c 10.656,0 19.296,-8.64 19.296,-19.368 v -29.52 c 0,-0.864 -0.648,-1.512 -1.512,-1.512 z" stroke-width="0" stroke-linejoin="miter" stroke-miterlimit="2" fill="#071130" stroke="#071130" transform="translate(0 321.00808324999997) translate(233.7064325 26.367667000000004) scale(1.5) translate(-324.86197 50.4)"></path>
                <path id="path48993" style="font-style:normal;font-weight:normal;font-size:72px;line-height:1;font-family:'Brandmark Sans 25';font-variant-ligatures:normal;text-align:center;text-anchor:middle" d="m 404.61706,-50.4 h -7.128 c -0.792,0 -1.512,0.648 -1.512,1.512 v 47.376 c 0,0.792 0.72,1.512 1.512,1.512 h 7.128 c 0.864,0 1.512,-0.72 1.512,-1.512 v -47.376 c 0,-0.864 -0.648,-1.512 -1.512,-1.512 z" stroke-width="0" stroke-linejoin="miter" stroke-miterlimit="2" fill="#152057" stroke="#152057" transform="translate(0 321.00808324999997) translate(340.3790675 26.367667000000004) scale(1.5) translate(-395.97706 50.4)"></path>
                <path id="path48995" style="font-style:normal;font-weight:normal;font-size:72px;line-height:1;font-family:'Brandmark Sans 25';font-variant-ligatures:normal;text-align:center;text-anchor:middle" d="m 462.05731,-30.312 h -23.328 v 10.224 h 23.76 c 2.952,0 5.256,2.448 4.968,5.472 -0.288,2.52 -2.592,4.464 -5.184,4.464 h -26.784 c -5.112,0 -9.216,-4.104 -9.216,-9.216 v -11.664 c 0,-5.112 4.104,-9.216 9.216,-9.216 h 39.6 c 0.864,0 1.584,-0.648 1.584,-1.512 v -7.128 c 0,-0.792 -0.72,-1.512 -1.584,-1.512 h -39.6 c -10.728,0 -19.368,8.64 -19.368,19.368 v 11.664 c 0,10.728 8.64,19.368 19.368,19.368 h 27 c 8.64,0 15.552,-7.2 15.12,-15.912 -0.36,-8.136 -7.416,-14.4 -15.552,-14.4 z" stroke-width="0" stroke-linejoin="miter" stroke-miterlimit="2" fill="#232e7e" stroke="#232e7e" transform="translate(0 321.00808324999997) translate(370.59544250000005 26.367667000000004) scale(1.5) translate(-416.12131 50.4)"></path>
                <path id="path48997" style="font-style:normal;font-weight:normal;font-size:72px;line-height:1;font-family:'Brandmark Sans 25';font-variant-ligatures:normal;text-align:center;text-anchor:middle" d="m 484.94881,-35.28 c 0,8.352 6.768,15.192 15.12,15.192 h 32.112 c 2.736,0 4.968,2.232 4.968,4.968 0,2.736 -2.232,4.968 -4.968,4.968 h -44.712 c -0.792,0 -1.512,0.648 -1.512,1.512 v 7.128 c 0,0.792 0.72,1.512 1.512,1.512 h 44.712 c 8.352,0 15.12,-6.768 15.12,-15.12 0,-8.352 -6.768,-15.192 -15.12,-15.192 h -32.112 c -2.736,0 -4.968,-2.232 -4.968,-4.968 0,-2.736 2.232,-4.968 4.968,-4.968 h 44.784 c 0.792,0 1.512,-0.648 1.512,-1.512 v -7.128 c 0,-0.864 -0.72,-1.512 -1.512,-1.512 h -44.784 c -8.352,0 -15.12,6.768 -15.12,15.12 z" stroke-width="0" stroke-linejoin="miter" stroke-miterlimit="2" fill="#323da5" stroke="#323da5" transform="translate(0 321.00808324999997) translate(473.8366925 26.367667000000004) scale(1.5) translate(-484.94881 50.4)"></path>
                <path id="path48999" style="font-style:normal;font-weight:normal;font-size:72px;line-height:1;font-family:'Brandmark Sans 25';font-variant-ligatures:normal;text-align:center;text-anchor:middle" d="m 619.80706,-2.232 -21.672,-41.832 c -2.232,-4.32 -6.408,-7.416 -11.232,-7.848 -5.76,-0.504 -11.016,2.448 -13.608,7.488 l -21.888,42.192 c -0.504,1.008 0.216,2.232 1.368,2.232 h 8.064 c 0.576,0 1.08,-0.288 1.368,-0.792 l 20.088,-38.952 c 0.936,-1.8 2.664,-2.016 3.312,-2.016 0.648,0 2.376,0.216 3.312,2.016 l 20.088,38.952 c 0.288,0.504 0.792,0.792 1.368,0.792 h 8.064 c 1.152,0 1.872,-1.224 1.368,-2.232 z" stroke-width="0" stroke-linejoin="miter" stroke-miterlimit="2" fill="#404bcc" stroke="#404bcc" transform="translate(0 321.00808324999997) translate(573.2790275000001 24.016166500000004) scale(1.5) translate(-551.2437 51.967667)"></path>
                <path id="path49001" style="font-style:normal;font-weight:normal;font-size:72px;line-height:1;font-family:'Brandmark Sans 25';font-variant-ligatures:normal;text-align:center;text-anchor:middle" d="m 694.33606,-50.4 h -7.128 c -0.792,0 -1.512,0.72 -1.512,1.512 v 29.52 c 0,5.112 -4.104,9.216 -9.144,9.216 h -2.448 c -5.04,0 -9.144,-4.104 -9.144,-9.216 v -29.52 c 0,-0.864 -0.72,-1.512 -1.584,-1.512 h -7.128 c -0.792,0 -1.512,0.648 -1.512,1.512 v 29.52 c 0,3.312 0.864,6.48 2.304,9.216 h -14.112 c -5.112,0 -9.216,-4.104 -9.216,-9.216 v -29.52 c 0,-0.864 -0.648,-1.512 -1.512,-1.512 h -7.128 c -0.792,0 -1.512,0.648 -1.512,1.512 v 29.52 c 0,10.656 8.712,19.368 19.368,19.368 h 33.624 c 10.656,0 19.368,-8.64 19.368,-19.368 v -29.52 c 0,-0.864 -0.72,-1.512 -1.584,-1.512 z" stroke-width="0" stroke-linejoin="miter" stroke-miterlimit="2" fill="#4e5af3" stroke="#4e5af3" transform="translate(0 321.00808324999997) translate(681.7535675000001 26.367667000000004) scale(1.5) translate(-623.56006 50.4)"></path>
            </g>
            <image xlink:href="" id="icon" style="display: none;" x="0" y="0"></image>
        </g>
    </g>
</svg>